<?xml version="1.0" encoding="utf-8"?>
<!-- Generator: Adobe Illustrator 24.1.0, SVG Export Plug-In . SVG Version: 6.00 Build 0)  -->
<svg version="1.1" id="Layer_1" xmlns="http://www.w3.org/2000/svg" xmlns:xlink="http://www.w3.org/1999/xlink" x="0px" y="0px"
	 viewBox="0 0 612 792" style="enable-background:new 0 0 612 792;" xml:space="preserve">
<style type="text/css">
	.st0{fill-rule:evenodd;clip-rule:evenodd;fill:#292E2A;}
	.st1{fill-rule:evenodd;clip-rule:evenodd;fill:#0D9B9B;}
	.st2{fill-rule:evenodd;clip-rule:evenodd;fill:#109F9F;}
	.st3{fill-rule:evenodd;clip-rule:evenodd;fill:#2C312D;}
	.st4{fill:#292E2A;}
	.st5{font-family:'PRIMETIME-Regular';}
	.st6{font-size:94.4101px;}
</style>
<g>
	<path class="st0" d="M304.93,672.46c-17.13-0.78-33.79-4.12-49.87-10c-45.51-16.64-78.71-47.05-100.1-90.4
		c-7.66-15.53-12.97-31.86-15.64-49.02c-1.37-8.79-1.77-17.64-1.79-26.51c-0.05-21.67-0.08-43.34-0.11-65c0-0.5,0.03-1.01,0-1.51
		c-0.05-1.07,0.52-1.41,1.49-1.36c0.6,0.03,1.21,0,1.81,0c116.41,0,232.83,0,349.24,0c3.74,0,3.34-0.44,3.36,3.41
		c0.12,22.07,0.25,44.15-0.45,66.21c-1.71,53.94-23.3,98.5-63.92,133.84c-16.13,14.03-34.53,24.34-54.76,31.29
		c-12.81,4.41-25.99,7.15-39.48,8.42c-4.51,0.43-9.04,0.73-13.55,1.09c-4.22,1.81-8.57,1.17-12.84,0.42
		C307.23,673.14,306.05,672.8,304.93,672.46z"/>
	<path class="st0" d="M312.97,302.92c-0.04,7.25-0.09,14.51-0.12,21.76c-0.01,3.3,0.13,2.98-2.89,2.97
		c-40.1-0.09-80.2-0.17-120.3-0.27c-15.72-0.04-31.43-0.12-47.15-0.18c-0.71,0-1.41-0.05-2.11,0c-1.28,0.1-1.79-0.46-1.86-1.73
		c-0.16-2.92-0.44-5.83-0.62-8.74c-0.91-15.11-0.91-30.21,0.53-45.29c2.48-25.83,8.9-50.51,21.43-73.41
		c12.1-22.12,28.64-40.33,48.8-55.3c12.4-9.21,25.42-17.45,39.79-23.27c19.4-7.86,39.51-12.51,60.55-12.49
		c4.47,0,4.08-0.43,4.22,4.08c0.39,12.79,0,25.59,0.05,38.38c0,1.31,0.1,2.61,0.16,3.92c-0.21,2.29-2.18,2.33-3.72,2.9
		c-7.21,2.65-14.25,5.52-19.87,11.11c-3.46,3.44-5.81,7.44-7.25,12.03c-1.55,4.93-2.35,10.03-2.37,15.17
		c-0.08,22.97-0.16,45.94,0.03,68.91c0.07,8.17,1.96,16.01,7.25,22.61c3.82,4.75,8.88,7.83,14.34,10.29c2.94,1.32,5.95,2.48,9,3.53
		C312.27,300.37,313.57,301.02,312.97,302.92z"/>
	<path class="st0" d="M318.56,153.37c0.06-1.2,0.18-2.41,0.18-3.61c0.01-13.2,0.01-26.4,0.01-39.6c0-0.71,0.05-1.42-0.01-2.12
		c-0.11-1.31,0.41-1.82,1.75-1.72c3.31,0.26,6.64,0.37,9.95,0.68c27.28,2.52,52.96,10.12,76.36,24.57
		c31.4,19.38,55.54,45.39,70.83,79.19c7.14,15.78,11.57,32.38,14.01,49.53c3.04,21.37,2.9,42.78,1.11,64.23
		c-0.3,3.63-0.32,3.63-4.05,3.61c-55.62-0.15-111.23-0.3-166.85-0.45c-3.79-0.01-3.29,0.5-3.37-3.4c-0.15-7.15-0.25-14.3-0.37-21.45
		c-1.26-2.55,0.97-2.68,2.33-3.09c4.16-1.25,8.2-2.75,12.08-4.71c11.73-5.92,17.2-15.8,18.57-28.49
		c1.08-10.05,0.48-20.12,0.57-30.19c0.12-13.3-0.01-26.59,0.05-39.89c0.02-4.16-0.52-8.23-1.22-12.3
		c-2.06-11.99-9.39-19.75-20.06-24.72c-3.01-1.4-6.13-2.56-9.28-3.64C319.99,155.41,318.52,155.15,318.56,153.37z"/>
	<path class="st1" d="M318.56,153.37c0.64,1.43,2.11,1.42,3.3,1.84c5.23,1.85,10.37,3.81,15.06,6.88
		c7.87,5.13,12.56,12.33,14.36,21.46c0.82,4.15,1.3,8.34,1.29,12.59c-0.06,21.46,0,42.92-0.18,64.38c-0.05,6.03-0.88,12-3.15,17.72
		c-2.91,7.35-7.84,12.8-14.65,16.66c-4.4,2.49-9.05,4.38-13.97,5.59c-1.23,0.3-2.7,0.47-2.5,2.35c-1.72,0.03-3.43,0.05-5.15,0.08
		c-0.06-1.68-1.35-2.01-2.61-2.43c-4.87-1.65-9.61-3.54-14.11-6.08c-9.71-5.48-14.7-13.93-16.3-24.74
		c-0.49-3.31-0.67-6.61-0.67-9.93c0.01-21.86-0.01-43.72,0.15-65.58c0.05-6.35,1.08-12.63,3.63-18.54
		c3.29-7.61,9.23-12.56,16.5-16.08c3.62-1.75,7.28-3.43,11.21-4.44c1.04-0.27,2.18-0.58,2.68-1.76
		C315.16,153.15,316.86,153.17,318.56,153.37z"/>
	<path class="st2" d="M304.93,672.46c5.4,0.41,10.81,0.55,16.23,0.47c-4.54,6.64-9.11,13.26-13.61,19.93
		c-5.33,7.89-8.32,16.54-7.66,26.15c0.36,5.22,2,10.1,6.22,13.57c2.52,2.07,5.57,3.16,8.87,3.4c4.98,0.37,9.55-1.03,13.92-3.23
		c6.12-3.08,11.13-7.46,15.09-13.06c3.49-4.93,7.21-9.69,11.58-13.88c6.38-6.11,13.45-11.19,22.31-12.99
		c7.9-1.61,15.09-0.31,20.34,6.46c2.41,3.12,4,6.68,4.5,10.69c0.79,6.28,0.03,12.4-1.72,18.42c-1.89,6.52-4.73,12.63-8.34,18.35
		c-2.19,3.48-3.26,5.54-7.95,1.54c-0.46-0.39-1-0.69-1.45-1.09c-1.84-1.6-2.12-3.27-0.74-5.33c2.7-4.03,4.97-8.27,6.64-12.83
		c1.78-4.87,2.84-9.84,2.61-15.05c-0.1-2.44-0.71-4.73-1.94-6.88c-0.98-1.72-2.41-2.71-4.27-3.04c-2.71-0.48-5.42-0.44-8.02,0.61
		c-5.95,2.42-11.08,6.04-15.52,10.66c-2.79,2.89-5.41,5.91-7.64,9.29c-4.74,7.17-11.08,12.74-18.35,17.18
		c-6.93,4.23-14.49,6.29-22.7,5.6c-5.83-0.49-10.85-2.75-15.2-6.63c-5.34-4.76-8.06-10.81-9.09-17.79
		c-1.52-10.34,0.81-19.95,5.2-29.22c1.81-3.83,4.08-7.38,6.52-10.83c2.25-3.17,4.4-6.4,6.57-9.58
		C306.55,672.52,305.58,672.98,304.93,672.46z"/>
	<path class="st1" d="M428.66,282.11c-3.66,3.89-7.3,6.86-11.34,9.35c-2.51,1.54-5.11,2.72-8.1,3.12c-4.41,0.59-8.06-1.25-9.74-4.89
		c-1.46-3.15-2.19-6.46-2.78-9.84c-0.38-2.18-0.71-4.38-1.28-6.51c-0.95-3.57-3.7-4.4-6.64-2.06c-1.91,1.52-3.28,3.54-4.75,5.46
		c-3.24,4.24-6.13,8.74-9.69,12.74c-1.28,1.43-2.55,2.86-4.12,3.97c-2.38,1.68-3.79,1.35-4.92-1.36c-1.06-2.55-1.38-5.28-1.11-8
		c0.51-5.2,1.03-10.41,2.27-15.5c0.6-2.45,1.3-4.86,2.47-7.11c0.32-0.62,0.69-1.27,1.21-1.71c1.85-1.58,3.63-0.97,4.33,1.36
		c0.6,1.97-0.09,3.79-0.61,5.6c-1.24,4.36-2.38,8.73-2.81,13.26c-0.04,0.4-0.18,0.79-0.2,1.19c-0.02,0.4,0.07,0.8,0.47,1.03
		c0.42,0.24,0.82,0.06,1.1-0.2c0.87-0.84,1.76-1.67,2.52-2.61c2.66-3.29,5.25-6.63,7.9-9.93c1.7-2.13,3.55-4.1,5.81-5.68
		c1.73-1.22,3.67-1.68,5.67-1.85c2.84-0.23,5.41,1.53,6.62,4.34c1.01,2.33,1.41,4.83,1.74,7.32c0.3,2.19,0.44,4.4,0.69,6.6
		c0.79,6.97,5.01,9.34,11.22,6.09c5.79-3.03,10.42-7.54,14.79-12.31c0.7-0.76,0.96-1.73,1.21-2.72c1.26-4.87,3.75-9.11,6.87-12.99
		c2.05-2.56,4.63-4.48,7.82-5.45c6.23-1.91,9.62,2.21,10.04,7.09c0.37,4.34-1.72,7.79-4.52,10.83c-4.03,4.4-8.69,8.1-13.48,11.63
		c-2.05,1.51-2.07,1.48-1.39,3.94c0.94,3.39,3.83,5.44,8.05,5.6c4.68,0.18,8.91-1.42,12.96-3.54c4.76-2.49,8.98-5.76,12.94-9.37
		c2.83-2.58,5.54-5.29,8.36-7.87c0.75-0.69,1.66-2.09,2.72-1.22c1.06,0.88-0.1,2.08-0.67,2.91c-3.96,5.89-8.76,11.03-14.22,15.56
		c-4.84,4.01-10.01,7.46-16.13,9.26c-3.54,1.05-7.1,1.37-10.72,0.5c-5.4-1.29-8.97-5.13-9.83-10.58
		C429.16,286,428.97,284.4,428.66,282.11z"/>
	<path class="st0" d="M286.71,229.4c0-7.86-0.01-15.71,0-23.57c0.01-6.13,0.31-12.24,1.48-18.29c1.62-8.41,6.09-14.72,13.49-18.97
		c3.76-2.16,7.75-3.79,11.87-5.13c1.97-0.64,3.83-0.27,5.61,0.39c4.24,1.56,8.39,3.3,12.2,5.83c6.92,4.58,10.54,11.2,12.04,19.08
		c0.94,4.93,1.19,9.97,1.18,15c-0.01,9.17,0.27,18.34-0.09,27.5c-0.39,9.56-0.16,19.12-0.4,28.67c-0.18,6.97-1.98,13.56-6.05,19.28
		c-2.32,3.27-5.4,5.88-8.93,7.93c-3.6,2.08-7.45,3.53-11.41,4.67c-1.95,0.56-4,0.48-5.93-0.29c-4.3-1.7-8.57-3.46-12.43-6.1
		c-5.83-3.99-9.49-9.34-11.04-16.26c-1.21-5.43-1.66-10.9-1.62-16.45c0.06-7.76,0.02-15.51,0.02-23.27
		C286.71,229.4,286.71,229.4,286.71,229.4z"/>
	<path class="st3" d="M436.44,276.36c-0.81-1.54-0.05-2.66,0.21-3.78c1-4.18,3.03-7.86,5.68-11.21c0.76-0.97,1.73-1.67,2.85-2.17
		c2.02-0.9,3.29-0.2,3.58,2.04c0.19,1.41,0.13,2.83-0.63,4.1C445.29,270.13,440.98,273.29,436.44,276.36z"/>
	<text transform="matrix(1 0 0 1 132.1245 415.876)" class="st4 st5 st6">TOUCH</text>
</g>
</svg>
